<svg width="512" height="512" viewBox="0 0 512 512" xmlns="http://www.w3.org/2000/svg">
  <defs>
    <linearGradient id="shell" x1="0" y1="0" x2="0" y2="1">
      <stop offset="0" stop-color="#D6323C" />
      <stop offset="0.5" stop-color="#A1000A" />
      <stop offset="1" stop-color="#7A0008" />
    </linearGradient>
    <linearGradient id="head" x1="0" y1="0" x2="0" y2="1">
      <stop offset="0" stop-color="#FFFFFF" />
      <stop offset="1" stop-color="#F1D9C9" />
    </linearGradient>
    <linearGradient id="stick" x1="0" y1="0" x2="1" y2="1">
      <stop offset="0" stop-color="#F1D9C9" />
      <stop offset="1" stop-color="#C9A784" />
    </linearGradient>
  </defs>

  <rect x="112" y="220" width="288" height="180" rx="18" fill="url(#shell)" />
  <rect x="112" y="220" width="288" height="26" fill="#FA5050" opacity="0.55" />
  <rect x="112" y="374" width="288" height="26" fill="#5C0006" opacity="0.55" />

  <ellipse cx="256" cy="220" rx="144" ry="46" fill="url(#head)" />
  <ellipse cx="256" cy="220" rx="144" ry="46" fill="none" stroke="#A1000A" stroke-width="8" />
  <ellipse cx="256" cy="400" rx="144" ry="40" fill="#5C0006" />

  <g stroke="#7A0008" stroke-width="6" stroke-linecap="round" opacity="0.85">
    <line x1="130" y1="238" x2="152" y2="392" />
    <line x1="192" y1="252" x2="204" y2="398" />
    <line x1="256" y1="258" x2="256" y2="400" />
    <line x1="320" y1="252" x2="308" y2="398" />
    <line x1="382" y1="238" x2="360" y2="392" />
  </g>

  <g stroke-linecap="round">
    <line x1="188" y1="196" x2="330" y2="90" stroke="url(#stick)" stroke-width="22" />
    <line x1="324" y1="196" x2="182" y2="90" stroke="url(#stick)" stroke-width="22" />
    <circle cx="330" cy="90" r="20" fill="url(#stick)" />
    <circle cx="182" cy="90" r="20" fill="url(#stick)" />
  </g>
</svg>
